<?xml version="1.0" standalone="no"?>
<!DOCTYPE svg PUBLIC "-//W3C//DTD SVG 20010904//EN"
 "http://www.w3.org/TR/2001/REC-SVG-20010904/DTD/svg10.dtd">
<svg version="1.0" xmlns="http://www.w3.org/2000/svg"
 width="147.000000pt" height="38.000000pt" viewBox="0 0 147.000000 38.000000"
 preserveAspectRatio="xMidYMid meet">
<metadata>
Created by potrace 1.15, written by Peter Selinger 2001-2017
</metadata>
<g transform="translate(0.000000,38.000000) scale(0.100000,-0.100000)"
fill="#000000" stroke="none">
<path d="M942 278 c-5 -7 -12 -29 -15 -48 -3 -19 -9 -47 -12 -61 -11 -43 15
-59 96 -59 62 0 85 9 60 25 -5 3 -7 22 -4 42 6 34 5 36 -20 31 -23 -4 -25 -3
-17 13 7 11 6 27 0 43 -8 21 -16 26 -44 26 -18 0 -38 -6 -44 -12z"/>
</g>
</svg>
